<svg xmlns="http://www.w3.org/2000/svg" width="760" height="460" viewBox="0 0 760 460">
<rect width="100%" height="100%" fill="white"/>
<text x="380.0" y="30.0" font-size="18" text-anchor="middle">OpenPI Selective Execution: Coverage vs Failure</text>
<line x1="76" y1="364" x2="576" y2="364" stroke="#111"/>
<line x1="76" y1="64" x2="76" y2="364" stroke="#111"/>
<line x1="76.0" y1="364" x2="76.0" y2="369" stroke="#111"/>
<line x1="71" y1="364.0" x2="76" y2="364.0" stroke="#111"/>
<line x1="76" y1="364.0" x2="576" y2="364.0" stroke="#eee"/>
<text x="76.0" y="386.0" font-size="11" text-anchor="middle">0.0</text>
<text x="66.0" y="368.0" font-size="11" text-anchor="end">0.0</text>
<line x1="176.0" y1="364" x2="176.0" y2="369" stroke="#111"/>
<line x1="71" y1="304.0" x2="76" y2="304.0" stroke="#111"/>
<line x1="76" y1="304.0" x2="576" y2="304.0" stroke="#eee"/>
<text x="176.0" y="386.0" font-size="11" text-anchor="middle">0.2</text>
<text x="66.0" y="308.0" font-size="11" text-anchor="end">0.2</text>
<line x1="276.0" y1="364" x2="276.0" y2="369" stroke="#111"/>
<line x1="71" y1="244.0" x2="76" y2="244.0" stroke="#111"/>
<line x1="76" y1="244.0" x2="576" y2="244.0" stroke="#eee"/>
<text x="276.0" y="386.0" font-size="11" text-anchor="middle">0.4</text>
<text x="66.0" y="248.0" font-size="11" text-anchor="end">0.4</text>
<line x1="376.0" y1="364" x2="376.0" y2="369" stroke="#111"/>
<line x1="71" y1="184.0" x2="76" y2="184.0" stroke="#111"/>
<line x1="76" y1="184.0" x2="576" y2="184.0" stroke="#eee"/>
<text x="376.0" y="386.0" font-size="11" text-anchor="middle">0.6</text>
<text x="66.0" y="188.0" font-size="11" text-anchor="end">0.6</text>
<line x1="476.0" y1="364" x2="476.0" y2="369" stroke="#111"/>
<line x1="71" y1="124.0" x2="76" y2="124.0" stroke="#111"/>
<line x1="76" y1="124.0" x2="576" y2="124.0" stroke="#eee"/>
<text x="476.0" y="386.0" font-size="11" text-anchor="middle">0.8</text>
<text x="66.0" y="128.0" font-size="11" text-anchor="end">0.8</text>
<line x1="576.0" y1="364" x2="576.0" y2="369" stroke="#111"/>
<line x1="71" y1="64.0" x2="76" y2="64.0" stroke="#111"/>
<line x1="76" y1="64.0" x2="576" y2="64.0" stroke="#eee"/>
<text x="576.0" y="386.0" font-size="11" text-anchor="middle">1.0</text>
<text x="66.0" y="68.0" font-size="11" text-anchor="end">1.0</text>
<path d="M 200.4 352.0 L 324.8 331.0 L 451.6 322.3 L 526.2 315.9 L 576.0 310.3" fill="none" stroke="#dc2626" stroke-width="2.5"/>
<circle cx="200.4" cy="352.0" r="5" fill="#dc2626"/>
<text x="200.4" y="343.0" font-size="10" text-anchor="middle">0.25/0.04</text>
<circle cx="324.8" cy="331.0" r="5" fill="#dc2626"/>
<text x="324.8" y="322.0" font-size="10" text-anchor="middle">0.50/0.11</text>
<circle cx="451.6" cy="322.3" r="5" fill="#dc2626"/>
<text x="451.6" y="313.3" font-size="10" text-anchor="middle">0.75/0.14</text>
<circle cx="526.2" cy="315.9" r="5" fill="#dc2626"/>
<text x="526.2" y="306.9" font-size="10" text-anchor="middle">0.90/0.16</text>
<circle cx="576.0" cy="310.3" r="5" fill="#dc2626"/>
<text x="576.0" y="301.3" font-size="10" text-anchor="middle">1.00/0.18</text>
<text x="326.0" y="432.0" font-size="13" text-anchor="middle">Coverage attempted</text>
<text x="18" y="214.0" font-size="13" text-anchor="middle" transform="rotate(-90 18 214.0)">Failure rate among attempts</text>
<text x="610.0" y="108.0" font-size="12" text-anchor="start">Lower is better at a</text>
<text x="610.0" y="128.0" font-size="12" text-anchor="start">given coverage.</text>
</svg>