<svg xmlns="http://www.w3.org/2000/svg" width="720" height="460" viewBox="0 0 720 460">
<rect width="100%" height="100%" fill="white"/>
<text x="360.0" y="30.0" font-size="18" text-anchor="middle">OpenPI SigLIP Risk Reliability</text>
<line x1="76" y1="384" x2="396" y2="384" stroke="#111"/>
<line x1="76" y1="64" x2="76" y2="384" stroke="#111"/>
<line x1="76" y1="384" x2="396" y2="64" stroke="#999" stroke-dasharray="4 4"/>
<line x1="76.0" y1="384" x2="76.0" y2="389" stroke="#111"/>
<line x1="71" y1="384.0" x2="76" y2="384.0" stroke="#111"/>
<text x="76.0" y="406.0" font-size="11" text-anchor="middle">0.0</text>
<text x="66.0" y="388.0" font-size="11" text-anchor="end">0.0</text>
<line x1="140.0" y1="384" x2="140.0" y2="389" stroke="#111"/>
<line x1="71" y1="320.0" x2="76" y2="320.0" stroke="#111"/>
<text x="140.0" y="406.0" font-size="11" text-anchor="middle">0.2</text>
<text x="66.0" y="324.0" font-size="11" text-anchor="end">0.2</text>
<line x1="204.0" y1="384" x2="204.0" y2="389" stroke="#111"/>
<line x1="71" y1="256.0" x2="76" y2="256.0" stroke="#111"/>
<text x="204.0" y="406.0" font-size="11" text-anchor="middle">0.4</text>
<text x="66.0" y="260.0" font-size="11" text-anchor="end">0.4</text>
<line x1="268.0" y1="384" x2="268.0" y2="389" stroke="#111"/>
<line x1="71" y1="192.0" x2="76" y2="192.0" stroke="#111"/>
<text x="268.0" y="406.0" font-size="11" text-anchor="middle">0.6</text>
<text x="66.0" y="196.0" font-size="11" text-anchor="end">0.6</text>
<line x1="332.0" y1="384" x2="332.0" y2="389" stroke="#111"/>
<line x1="71" y1="128.0" x2="76" y2="128.0" stroke="#111"/>
<text x="332.0" y="406.0" font-size="11" text-anchor="middle">0.8</text>
<text x="66.0" y="132.0" font-size="11" text-anchor="end">0.8</text>
<line x1="396.0" y1="384" x2="396.0" y2="389" stroke="#111"/>
<line x1="71" y1="64.0" x2="76" y2="64.0" stroke="#111"/>
<text x="396.0" y="406.0" font-size="11" text-anchor="middle">1.0</text>
<text x="66.0" y="68.0" font-size="11" text-anchor="end">1.0</text>
<rect x="78.0" y="384.0" width="28.0" height="0.0" fill="#90cdf4" fill-opacity="0.35"/>
<circle cx="98.0" cy="384.0" r="4.1" fill="#2563eb" fill-opacity="0.82"/>
<rect x="110.0" y="376.0" width="28.0" height="8.0" fill="#90cdf4" fill-opacity="0.35"/>
<circle cx="130.1" cy="376.0" r="5.6" fill="#2563eb" fill-opacity="0.82"/>
<rect x="142.0" y="384.0" width="28.0" height="0.0" fill="#90cdf4" fill-opacity="0.35"/>
<circle cx="156.2" cy="384.0" r="6.0" fill="#2563eb" fill-opacity="0.82"/>
<rect x="174.0" y="346.4" width="28.0" height="37.6" fill="#90cdf4" fill-opacity="0.35"/>
<circle cx="188.2" cy="346.4" r="5.4" fill="#2563eb" fill-opacity="0.82"/>
<rect x="206.0" y="347.1" width="28.0" height="36.9" fill="#90cdf4" fill-opacity="0.35"/>
<circle cx="221.7" cy="347.1" r="5.0" fill="#2563eb" fill-opacity="0.82"/>
<rect x="238.0" y="312.9" width="28.0" height="71.1" fill="#90cdf4" fill-opacity="0.35"/>
<circle cx="247.6" cy="312.9" r="4.4" fill="#2563eb" fill-opacity="0.82"/>
<rect x="270.0" y="277.3" width="28.0" height="106.7" fill="#90cdf4" fill-opacity="0.35"/>
<circle cx="283.3" cy="277.3" r="4.1" fill="#2563eb" fill-opacity="0.82"/>
<rect x="302.0" y="320.0" width="28.0" height="64.0" fill="#90cdf4" fill-opacity="0.35"/>
<circle cx="314.1" cy="320.0" r="4.4" fill="#2563eb" fill-opacity="0.82"/>
<rect x="334.0" y="256.0" width="28.0" height="128.0" fill="#90cdf4" fill-opacity="0.35"/>
<circle cx="349.5" cy="256.0" r="4.2" fill="#2563eb" fill-opacity="0.82"/>
<rect x="366.0" y="78.5" width="28.0" height="305.5" fill="#90cdf4" fill-opacity="0.35"/>
<circle cx="390.2" cy="78.5" r="4.9" fill="#2563eb" fill-opacity="0.82"/>
<text x="236.0" y="432.0" font-size="13" text-anchor="middle">Predicted failure risk</text>
<text x="18" y="224.0" font-size="13" text-anchor="middle" transform="rotate(-90 18 224.0)">Empirical failure rate</text>
<text x="440.0" y="98.0" font-size="12" text-anchor="start">Dashed line: perfect calibration</text>
<text x="440.0" y="122.0" font-size="12" text-anchor="start">Circle size: bin count</text>
</svg>