<svg xmlns="http://www.w3.org/2000/svg" width="720" height="480" viewBox="0 0 720 480">
<rect width="100%" height="100%" fill="white"/>
<text x="360.0" y="30.0" font-size="18" text-anchor="middle">Toy calibrated state-risk reliability</text>
<line x1="72" y1="404" x2="412" y2="404" stroke="#111" stroke-width="1"/>
<line x1="72" y1="64" x2="72" y2="404" stroke="#111" stroke-width="1"/>
<line x1="72" y1="404" x2="412" y2="64" stroke="#999" stroke-dasharray="4 4"/>
<line x1="72.0" y1="404" x2="72.0" y2="409" stroke="#111"/>
<line x1="67" y1="404.0" x2="72" y2="404.0" stroke="#111"/>
<text x="72.0" y="426.0" font-size="11" text-anchor="middle">0.0</text>
<text x="62.0" y="408.0" font-size="11" text-anchor="end">0.0</text>
<line x1="140.0" y1="404" x2="140.0" y2="409" stroke="#111"/>
<line x1="67" y1="336.0" x2="72" y2="336.0" stroke="#111"/>
<text x="140.0" y="426.0" font-size="11" text-anchor="middle">0.2</text>
<text x="62.0" y="340.0" font-size="11" text-anchor="end">0.2</text>
<line x1="208.0" y1="404" x2="208.0" y2="409" stroke="#111"/>
<line x1="67" y1="268.0" x2="72" y2="268.0" stroke="#111"/>
<text x="208.0" y="426.0" font-size="11" text-anchor="middle">0.4</text>
<text x="62.0" y="272.0" font-size="11" text-anchor="end">0.4</text>
<line x1="276.0" y1="404" x2="276.0" y2="409" stroke="#111"/>
<line x1="67" y1="200.0" x2="72" y2="200.0" stroke="#111"/>
<text x="276.0" y="426.0" font-size="11" text-anchor="middle">0.6</text>
<text x="62.0" y="204.0" font-size="11" text-anchor="end">0.6</text>
<line x1="344.0" y1="404" x2="344.0" y2="409" stroke="#111"/>
<line x1="67" y1="132.0" x2="72" y2="132.0" stroke="#111"/>
<text x="344.0" y="426.0" font-size="11" text-anchor="middle">0.8</text>
<text x="62.0" y="136.0" font-size="11" text-anchor="end">0.8</text>
<line x1="412.0" y1="404" x2="412.0" y2="409" stroke="#111"/>
<line x1="67" y1="64.0" x2="72" y2="64.0" stroke="#111"/>
<text x="412.0" y="426.0" font-size="11" text-anchor="middle">1.0</text>
<text x="62.0" y="68.0" font-size="11" text-anchor="end">1.0</text>
<circle cx="81.3" cy="392.2" r="8.3" fill="#2b6cb0" fill-opacity="0.82"/>
<rect x="74.0" y="392.2" width="30.0" height="11.8" fill="#90cdf4" fill-opacity="0.35"/>
<circle cx="117.8" cy="372.5" r="4.9" fill="#2b6cb0" fill-opacity="0.82"/>
<rect x="108.0" y="372.5" width="30.0" height="31.5" fill="#90cdf4" fill-opacity="0.35"/>
<circle cx="156.3" cy="366.6" r="5.8" fill="#2b6cb0" fill-opacity="0.82"/>
<rect x="142.0" y="366.6" width="30.0" height="37.4" fill="#90cdf4" fill-opacity="0.35"/>
<circle cx="190.9" cy="365.5" r="4.9" fill="#2b6cb0" fill-opacity="0.82"/>
<rect x="176.0" y="365.5" width="30.0" height="38.5" fill="#90cdf4" fill-opacity="0.35"/>
<circle cx="232.4" cy="234.0" r="4.8" fill="#2b6cb0" fill-opacity="0.82"/>
<rect x="210.0" y="234.0" width="30.0" height="170.0" fill="#90cdf4" fill-opacity="0.35"/>
<circle cx="255.5" cy="205.3" r="5.5" fill="#2b6cb0" fill-opacity="0.82"/>
<rect x="244.0" y="205.3" width="30.0" height="198.7" fill="#90cdf4" fill-opacity="0.35"/>
<circle cx="287.8" cy="134.2" r="5.0" fill="#2b6cb0" fill-opacity="0.82"/>
<rect x="278.0" y="134.2" width="30.0" height="269.8" fill="#90cdf4" fill-opacity="0.35"/>
<circle cx="325.3" cy="119.3" r="4.7" fill="#2b6cb0" fill-opacity="0.82"/>
<rect x="312.0" y="119.3" width="30.0" height="284.7" fill="#90cdf4" fill-opacity="0.35"/>
<circle cx="365.2" cy="75.3" r="6.0" fill="#2b6cb0" fill-opacity="0.82"/>
<rect x="346.0" y="75.3" width="30.0" height="328.7" fill="#90cdf4" fill-opacity="0.35"/>
<circle cx="391.5" cy="84.7" r="6.7" fill="#2b6cb0" fill-opacity="0.82"/>
<rect x="380.0" y="84.7" width="30.0" height="319.3" fill="#90cdf4" fill-opacity="0.35"/>
<text x="242.0" y="450.0" font-size="13" text-anchor="middle">Predicted failure probability</text>
<text x="18" y="234.0" font-size="13" text-anchor="middle" transform="rotate(-90 18 234.0)">Empirical failure rate</text>
<text x="454.0" y="98.0" font-size="12" text-anchor="start">Dashed line: perfect calibration</text>
<text x="454.0" y="122.0" font-size="12" text-anchor="start">Circle size: bin count</text>
</svg>